# xmcd CD database file
#
# Track frame offsets:
#	150
#	22293
#	42592
#	64685
#	84180
#	103701
#	126176
#	146961
#	169539
#	191044
#	210339
#	230952
#	252333
#	272621
#	292824
#
# Disc length: 4199 seconds
#
# Revision: 0
# Processed by: cddbd v1.4PL0 Copyright (c) Steve Scherf et al.
# Submitted via: CDex 1.50
#
DISCID=e010650f
DTITLE=Frankie Negron - Frankie Siempre Frankie
DYEAR=2003
DGENRE=Salsa
TTITLE0=Remolino
TTITLE1=Comerte a Besos (version salsa)
TTITLE2=Enamorado de Ti
TTITLE3=Hoy me he Vuelto a Enamorar
TTITLE4=Una Gota de Lluvia
TTITLE5=Agua Pasada
TTITLE6=Inolvidable
TTITLE7=No Me Compares
TTITLE8=Princesa
TTITLE9=Por tu Placer (version pop)
TTITLE10=No Quiero Verte Llorar
TTITLE11=Desesperadamente
TTITLE12=Hasta que te Enamores
TTITLE13=Fria como el Viento
TTITLE14=Angel (version en espanol)
EXTD=YEAR: 2003
EXTT0=
EXTT1=
EXTT2=
EXTT3=
EXTT4=
EXTT5=
EXTT6=
EXTT7=
EXTT8=
EXTT9=
EXTT10=
EXTT11=
EXTT12=
EXTT13=
EXTT14=
PLAYORDER=
